<?xml version="1.0" encoding="UTF-8"?>
<svg width="82px" height="36px" viewBox="0 0 82 36" version="1.1" xmlns="http://www.w3.org/2000/svg" xmlns:xlink="http://www.w3.org/1999/xlink">
  <g id="BRAND---Dark-Example">
      <path d="M36,36 L30,36 C26.352,33.243 25.196,29.577 25.46,25.076 C25.743,20.266 25.61,15.422 25.455,10.6 C25.412,9.248 24.651,7.919 24.219,6.58 C23.761,6.616 23.303,6.653 22.844,6.689 C22.264,8.347 21.546,9.971 21.13,11.67 C19.628,17.808 18.229,23.971 16.79,30.124 C15.646,35.018 15.646,35.018 10.475,35.013 C9.809,35.012 9.141,34.961 8.478,35.001 C5.923,35.156 4.897,33.972 4.956,31.427 C5.055,27.102 4.973,22.772 4.97,18.444 C4.968,14.667 4.97,10.89 4.97,6.705 C2.849,6.831 1.424,6.915 0,7 L0,0 L10,0 C14.458,2.351 16.184,6.109 15.955,11.049 C15.788,14.669 15.922,18.304 15.922,21.932 C17.806,17.623 19.038,13.339 19.791,8.973 C20.491,4.909 22.366,1.91 26,0 L31,0 C35.062,2.826 36.536,6.648 36.169,11.598 C35.814,16.401 36.025,21.253 36.148,26.079 C36.179,27.33 36.81,28.567 37.165,29.81 C37.631,29.81 38.096,29.809 38.561,29.809 C39.076,28.351 39.711,26.923 40.084,25.43 C41.615,19.296 43.06,13.14 44.55,6.995 C45.967,1.147 45.974,1.149 51.731,1.302 C56.243,1.422 56.39,1.524 56.427,6.216 C56.477,12.544 56.366,18.874 56.496,25.199 C56.528,26.759 57.223,28.305 57.613,29.857 C58.089,29.848 58.565,29.84 59.041,29.832 C59.6,28.175 60.279,26.548 60.697,24.857 C62.013,19.527 63.21,14.168 64.492,8.83 C66.468,0.602 66.702,0.449 75.21,1.551 C75.672,1.611 76.096,1.963 77.099,2.452 L77.099,27.783 C79.112,27.872 80.556,27.936 82,28 L82,29 C81.227,30.066 80.532,31.201 79.665,32.186 C76.373,35.924 70.884,35.812 68.145,31.721 C67.104,30.165 66.561,28.049 66.443,26.148 C66.192,22.099 66.366,18.023 66.366,13.958 C65.995,13.94 65.624,13.922 65.253,13.905 C64.229,18.207 63.001,22.473 62.244,26.821 C61.585,30.603 60.05,33.682 57,36 L51,36 C46.913,33.728 45.513,30.204 45.765,25.639 C45.997,21.447 45.815,17.232 45.815,13.027 C43.884,17.869 42.572,22.774 41.62,27.748 C40.92,31.407 39.297,34.217 36,36" id="Fill-1"></path>
  </g>
</svg>