<svg xmlns="http://www.w3.org/2000/svg" xmlns:xlink="http://www.w3.org/1999/xlink"><symbol id="cannon" viewBox="0 0 125 63">
    <!-- Generator: Sketch 52.6 (67491) - http://www.bohemiancoding.com/sketch -->
    <title>Cannon</title>
    <desc>Created with Sketch.</desc>
    <g id="MAIN" stroke="none" stroke-width="1" fill="none" fill-rule="evenodd">
        <g id="HOMEPAGE-TEMPLATE---FULL" transform="translate(-659.000000, -1685.000000)" fill="#FFFFFF">
            <g id="SUBFOOTER" transform="translate(-1.000000, 1445.000000)">
                <g id="Cannon" transform="translate(660.000000, 240.000000)">
                    <g>
                        <path d="M64.4859813,0.933333333 C53.1542056,0.933333333 43.3411215,7 38.0841121,16.1 L26.8691589,16.1 L26.8691589,25.4333333 L34.4626168,25.4333333 L39.2523364,25.4333333 L62.5,25.4333333 L67.7570093,25.4333333 L89.2523364,25.4333333 L94.6261682,25.4333333 L124.182243,25.4333333 L124.182243,16.1 L91.0046729,16.1 C85.6308411,7 75.817757,0.933333333 64.4859813,0.933333333 Z M75.4672897,8.4 L67.8738318,15.9833333 L67.7570093,15.9833333 L67.7570093,6.06666667 C70.4439252,6.41666667 73.1308411,7.23333333 75.4672897,8.4 Z M62.5,16.1 L54.2056075,7.93333333 C56.7757009,6.88333333 59.5794393,6.18333333 62.5,5.95 L62.5,16.1 Z M49.4158879,10.5 L54.9065421,15.9833333 L43.6915888,15.9833333 C45.3271028,13.8833333 47.3130841,12.0166667 49.4158879,10.5 Z M75.2336449,16.1 L80.0233645,11.3166667 C81.7757009,12.7166667 83.411215,14.35 84.6962617,16.1 L75.2336449,16.1 Z" id="Shape" fill-rule="nonzero"/>
                        <path d="M95.2102804,31.5 C95.2102804,30.9166667 95.2102804,30.3333333 95.2102804,29.75 L89.953271,29.75 C89.953271,29.75 89.953271,29.75 89.953271,29.75 L38.6682243,29.75 C38.6682243,29.75 38.6682243,29.75 38.6682243,29.75 L33.9953271,29.75 C33.9953271,30.3333333 33.9953271,30.9166667 33.9953271,31.5 C33.9953271,35.5833333 34.8130841,39.4333333 36.2149533,43.05 L29.7897196,46.7833333 C29.7897196,46.7833333 28.1542056,48.0666667 26.5186916,48.7666667 C23.9485981,49.9333333 23.5981308,49.8166667 23.5981308,49.8166667 L0.23364486,49.8166667 L0.23364486,58.6833333 L23.5981308,58.6833333 L25.9345794,58.45 C26.9859813,58.3333333 27.6869159,57.9833333 28.6214953,57.5166667 C30.2570093,56.7 34.228972,54.4833333 34.228972,54.3666667 L40.771028,50.6333333 C46.3785047,57.6333333 55.0233645,62.0666667 64.7196262,62.0666667 C81.4252336,62.0666667 95.2102804,48.4166667 95.2102804,31.5 Z M62.5,40.95 L62.5,57.05 C59.5794393,56.8166667 56.7757009,56.1166667 54.2056075,55.0666667 L62.5,40.95 Z M67.7570093,40.8333333 L75.817757,54.4833333 C73.364486,55.7666667 70.6775701,56.5833333 67.7570093,56.9333333 L67.7570093,40.8333333 Z M80.2570093,51.5666667 L72.546729,38.5 L85.3971963,46.0833333 C83.9953271,48.1833333 82.2429907,50.05 80.2570093,51.5666667 Z M76.8691589,35 L89.7196262,35 C89.3691589,37.2166667 88.7850467,39.4333333 87.9672897,41.5333333 L76.8691589,35 Z M38.7850467,35 L49.8831776,35 L40.1869159,40.6 C39.6028037,38.85 39.0186916,36.9833333 38.7850467,35 Z M44.7429907,48.3 L55.9579439,41.7666667 L49.5327103,52.6166667 C47.7803738,51.3333333 46.1448598,49.8166667 44.7429907,48.3 Z" id="Shape" fill-rule="nonzero"/>
                        <ellipse id="Oval" fill-rule="nonzero" cx="22.1962617" cy="20.7666667" rx="1.86915888" ry="1.86666667"/>
                    </g>
                </g>
            </g>
        </g>
    </g>
</symbol><symbol id="close" viewBox="0 0 46.8 46.8">
<g transform="translate(0, 128)">
	<g>
		<rect x="22.4" y="-136.7" transform="matrix(0.7071 0.7071 -0.7071 0.7071 -67.0956 -47.1888)" width="2" height="64.2"/>
	</g>
	<g>
		<rect x="-8.7" y="-105.6" transform="matrix(0.7071 0.7071 -0.7071 0.7071 -67.0956 -47.1888)" width="64.2" height="2"/>
	</g>
</g>
</symbol><symbol id="custom-issue" viewBox="-49 141 512 512">
<g>
	<g>
		<rect x="73.3" y="223.9" width="7" height="330.3"/>
		<rect x="73.3" y="223.9" width="253.4" height="6.9"/>
		<rect x="319.9" y="223.9" width="6.8" height="30.8"/>
		<rect x="73.4" y="547.2" width="30.7" height="7"/>
	</g>
	<g>
		<rect x="103.6" y="254.2" width="7" height="330.4"/>
		<rect x="103.6" y="254.2" width="253.4" height="6.9"/>
		<rect x="350" y="254.2" width="7" height="330.4"/>
		<rect x="103.6" y="578" width="253.4" height="6.9"/>
	</g>
	<g>
		<rect x="44" y="194.6" width="7" height="330.4"/>
		<rect x="44" y="194.6" width="253.4" height="6.9"/>
		<rect x="290.6" y="194.6" width="6.8" height="30.8"/>
		<rect x="44.1" y="518.1" width="30.7" height="7"/>
	</g>
</g>
</symbol><symbol id="logo" viewBox="0 0 82 36">
  <g id="BRAND---Dark-Example">
      <path d="M36,36 L30,36 C26.352,33.243 25.196,29.577 25.46,25.076 C25.743,20.266 25.61,15.422 25.455,10.6 C25.412,9.248 24.651,7.919 24.219,6.58 C23.761,6.616 23.303,6.653 22.844,6.689 C22.264,8.347 21.546,9.971 21.13,11.67 C19.628,17.808 18.229,23.971 16.79,30.124 C15.646,35.018 15.646,35.018 10.475,35.013 C9.809,35.012 9.141,34.961 8.478,35.001 C5.923,35.156 4.897,33.972 4.956,31.427 C5.055,27.102 4.973,22.772 4.97,18.444 C4.968,14.667 4.97,10.89 4.97,6.705 C2.849,6.831 1.424,6.915 0,7 L0,0 L10,0 C14.458,2.351 16.184,6.109 15.955,11.049 C15.788,14.669 15.922,18.304 15.922,21.932 C17.806,17.623 19.038,13.339 19.791,8.973 C20.491,4.909 22.366,1.91 26,0 L31,0 C35.062,2.826 36.536,6.648 36.169,11.598 C35.814,16.401 36.025,21.253 36.148,26.079 C36.179,27.33 36.81,28.567 37.165,29.81 C37.631,29.81 38.096,29.809 38.561,29.809 C39.076,28.351 39.711,26.923 40.084,25.43 C41.615,19.296 43.06,13.14 44.55,6.995 C45.967,1.147 45.974,1.149 51.731,1.302 C56.243,1.422 56.39,1.524 56.427,6.216 C56.477,12.544 56.366,18.874 56.496,25.199 C56.528,26.759 57.223,28.305 57.613,29.857 C58.089,29.848 58.565,29.84 59.041,29.832 C59.6,28.175 60.279,26.548 60.697,24.857 C62.013,19.527 63.21,14.168 64.492,8.83 C66.468,0.602 66.702,0.449 75.21,1.551 C75.672,1.611 76.096,1.963 77.099,2.452 L77.099,27.783 C79.112,27.872 80.556,27.936 82,28 L82,29 C81.227,30.066 80.532,31.201 79.665,32.186 C76.373,35.924 70.884,35.812 68.145,31.721 C67.104,30.165 66.561,28.049 66.443,26.148 C66.192,22.099 66.366,18.023 66.366,13.958 C65.995,13.94 65.624,13.922 65.253,13.905 C64.229,18.207 63.001,22.473 62.244,26.821 C61.585,30.603 60.05,33.682 57,36 L51,36 C46.913,33.728 45.513,30.204 45.765,25.639 C45.997,21.447 45.815,17.232 45.815,13.027 C43.884,17.869 42.572,22.774 41.62,27.748 C40.92,31.407 39.297,34.217 36,36" id="Fill-1"/>
  </g>
</symbol><symbol id="menu" viewBox="0 0 20 18">
  <g id="menu">
    <g id="line-1">
      <path d="M7.23083731,2.96L7.23083731 0.96 19.8 0.96 19.8 2.96z"/>
    </g>
    <g id="line-2">
      <path d="M0.2,10L0.2 8 19.8 8 19.8 10z"/>
    </g>
    <g id="line-3">
      <path d="M3.71312668,17.04L3.71312668 15.04 19.8 15.04 19.8 17.04z"/>
    </g>
  </g>
</symbol><symbol id="search" viewBox="0 0 24 24"><circle cx="11" cy="11" r="8"/><line x1="21" y1="21" x2="16.65" y2="16.65"/></symbol></svg>