<svg xmlns="http://www.w3.org/2000/svg"><symbol id="cannon" viewBox="0 0 125 63"><g fill-rule="nonzero" fill="#FFF"><path d="M64.486.933C53.154.933 43.341 7 38.084 16.1H26.87v9.333H124.182V16.1H91.005C85.63 7 75.818.933 64.486.933zM75.467 8.4l-7.593 7.583h-.117V6.067c2.687.35 5.374 1.166 7.71 2.333zM62.5 16.1l-8.294-8.167A27.842 27.842 0 0 1 62.5 5.95V16.1zm-13.084-5.6l5.49 5.483H43.693c1.635-2.1 3.621-3.966 5.724-5.483zm25.818 5.6l4.79-4.783c1.752 1.4 3.387 3.033 4.672 4.783h-9.462zM95.21 31.5v-1.75H33.995v1.75c0 4.083.818 7.933 2.22 11.55l-6.425 3.733s-1.636 1.284-3.271 1.984c-2.57 1.166-2.92 1.05-2.92 1.05H.233v8.866h23.364l2.337-.233c1.051-.117 1.752-.467 2.686-.933 1.636-.817 5.608-3.034 5.608-3.15l6.542-3.734c5.608 7 14.252 11.434 23.949 11.434 16.705 0 30.49-13.65 30.49-30.567zM62.5 40.95v16.1a27.842 27.842 0 0 1-8.294-1.983L62.5 40.95zm5.257-.117l8.06 13.65c-2.453 1.284-5.14 2.1-8.06 2.45v-16.1zm12.5 10.734L72.547 38.5l12.85 7.583a22.976 22.976 0 0 1-5.14 5.484zM76.869 35h12.85a31.762 31.762 0 0 1-1.752 6.533L76.87 35zm-38.084 0h11.098l-9.696 5.6c-.584-1.75-1.168-3.617-1.402-5.6zm5.958 13.3l11.215-6.533-6.425 10.85c-1.753-1.284-3.388-2.8-4.79-4.317z"/><ellipse cx="22.196" cy="20.767" rx="1.869" ry="1.867"/></g></symbol><symbol id="close" viewBox="0 0 46.8 46.8"><path d="M45.404-.01l1.414 1.414L1.422 46.8.008 45.385z"/><path d="M1.422-.01l45.396 45.395-1.414 1.415L.008 1.404z"/></symbol><symbol id="custom-issue" viewBox="-49 141 512 512"><path d="M73.3 223.9h7v330.3h-7z"/><path d="M73.3 223.9h253.4v6.9H73.3z"/><path d="M319.9 223.9h6.8v30.8h-6.8zM73.4 547.2h30.7v7H73.4z"/><g><path d="M103.6 254.2h7v330.4h-7z"/><path d="M103.6 254.2H357v6.9H103.6z"/><path d="M350 254.2h7v330.4h-7z"/><path d="M103.6 578H357v6.9H103.6z"/></g><g><path d="M44 194.6h7V525h-7z"/><path d="M44 194.6h253.4v6.9H44z"/><path d="M290.6 194.6h6.8v30.8h-6.8zM44.1 518.1h30.7v7H44.1z"/></g></symbol><symbol id="logo" viewBox="0 0 82 36"><path d="M36 36h-6c-3.648-2.757-4.804-6.423-4.54-10.924.283-4.81.15-9.654-.005-14.476-.043-1.352-.804-2.681-1.236-4.02l-1.375.109c-.58 1.658-1.298 3.282-1.714 4.981-1.502 6.138-2.901 12.301-4.34 18.454-1.144 4.894-1.144 4.894-6.315 4.889-.666-.001-1.334-.052-1.997-.012-2.555.155-3.581-1.029-3.522-3.574.099-4.325.017-8.655.014-12.983-.002-3.777 0-7.554 0-11.739L0 7V0h10c4.458 2.351 6.184 6.109 5.955 11.049-.167 3.62-.033 7.255-.033 10.883a55.618 55.618 0 0 0 3.869-12.959C20.491 4.909 22.366 1.91 26 0h5c4.062 2.826 5.536 6.648 5.169 11.598-.355 4.803-.144 9.655-.021 14.481.031 1.251.662 2.488 1.017 3.731l1.396-.001c.515-1.458 1.15-2.886 1.523-4.379 1.531-6.134 2.976-12.29 4.466-18.435 1.417-5.848 1.424-5.846 7.181-5.693 4.512.12 4.659.222 4.696 4.914.05 6.328-.061 12.658.069 18.983.032 1.56.727 3.106 1.117 4.658l1.428-.025c.559-1.657 1.238-3.284 1.656-4.975 1.316-5.33 2.513-10.689 3.795-16.027C66.468.602 66.702.449 75.21 1.551c.462.06.886.412 1.889.901v25.331L82 28v1c-.773 1.066-1.468 2.201-2.335 3.186-3.292 3.738-8.781 3.626-11.52-.465-1.041-1.556-1.584-3.672-1.702-5.573-.251-4.049-.077-8.125-.077-12.19l-1.113-.053c-1.024 4.302-2.252 8.568-3.009 12.916C61.585 30.603 60.05 33.682 57 36h-6c-4.087-2.272-5.487-5.796-5.235-10.361.232-4.192.05-8.407.05-12.612-1.931 4.842-3.243 9.747-4.195 14.721-.7 3.659-2.323 6.469-5.62 8.252"/></symbol><symbol id="menu" viewBox="0 0 20 18"><path d="M7.23 2.96v-2H19.8v2zM.2 10V8h19.6v2zM3.713 17.04v-2H19.8v2z"/></symbol><symbol id="search" viewBox="0 0 24 24"><circle cx="11" cy="11" r="8"/><path d="M21 21l-4.35-4.35"/></symbol></svg>