<?xml version="1.0" encoding="UTF-8"?>
<svg width="464px" height="134px" viewBox="0 0 464 134" version="1.1" xmlns="http://www.w3.org/2000/svg" xmlns:xlink="http://www.w3.org/1999/xlink">
    <!-- Generator: Sketch 52.6 (67491) - http://www.bohemiancoding.com/sketch -->
    <title>hubspot</title>
    <desc>Created with Sketch.</desc>
    <defs>
        <polygon id="path-1" points="65.2316638 89.4016734 0.0354083541 89.4016734 0.0354083541 0.161091695 65.2316638 0.161091695"></polygon>
        <polygon id="path-3" points="0.59602706 0.0337364805 124.124645 0.0337364805 124.124645 131.38588 0.59602706 131.38588"></polygon>
    </defs>
    <g id="Page-1" stroke="none" stroke-width="1" fill="none" fill-rule="evenodd">
        <g id="hubspot">
            <g id="Marketing/Logos/HubSpot-Primary" transform="translate(0.000000, 0.048420)">
                <polygon id="Fill-1" fill="#33475B" points="50.1606713 22.7390119 50.1606713 60.3197644 16.1503654 60.3197644 16.1503654 22.7390119 0.000498709213 22.7390119 0.000498709213 112.44094 16.1503654 112.44094 16.1503654 76.0865086 50.1606713 76.0865086 50.1606713 112.44094 66.3088757 112.44094 66.3088757 22.7390119"></polygon>
                <path d="M117.985291,83.448146 C117.985291,90.9190896 111.989143,96.9984034 104.628195,96.9984034 C97.2639227,96.9984034 91.2711004,90.9190896 91.2711004,83.448146 L91.2711004,45.0273551 L75.9756888,45.0273551 L75.9756888,83.448146 C75.9756888,99.476348 88.83075,112.515498 104.628195,112.515498 C120.422316,112.515498 133.274053,99.476348 133.274053,83.448146 L133.274053,45.0273551 L117.985291,45.0273551 L117.985291,83.448146 Z" id="Fill-2" fill="#33475B"></path>
                <path d="M231.467569,48.9836322 C231.467569,41.106164 236.605937,38.6096644 242.233039,38.6096644 C246.761319,38.6096644 252.755803,42.1064506 256.665684,46.3572472 L266.694726,34.3622415 C261.684361,27.4901204 251.530641,22.740024 243.210509,22.740024 C226.571907,22.740024 214.582938,32.613005 214.582938,48.9836322 C214.582938,79.3481515 251.164921,69.7231336 251.164921,86.7229461 C251.164921,91.9655952 246.149569,96.5925535 240.401114,96.5925535 C231.346217,96.5925535 228.407157,92.0937938 224.249585,87.3453842 L213.11507,99.089053 C220.213365,107.961747 229.020569,112.463881 239.541672,112.463881 C255.324156,112.463881 268.04789,102.466075 268.04789,86.8427107 C268.04789,53.1045433 231.467569,63.603336 231.467569,48.9836322" id="Fill-4" fill="#33475B"></path>
                <path d="M457.777987,98.112382 C448.729739,98.112382 446.161387,94.1415982 446.161387,88.057224 L446.161387,61.1186442 L460.226649,61.1186442 L460.226649,47.4654906 L446.161387,47.4654906 L446.161387,29.4620177 L430.626595,36.5382445 L430.626595,91.4089433 C430.626595,105.438259 440.16524,112.516172 453.251369,112.516172 C455.209634,112.516172 457.902664,112.387974 459.372194,112.020246 L463.165709,97.8677925 C461.453474,97.987557 459.496871,98.112382 457.777987,98.112382" id="Fill-6" fill="#33475B"></path>
                <path d="M176.184157,96.8479387 C166.57403,96.8479387 158.78253,88.9417945 158.78253,79.1902648 C158.78253,69.4387351 166.57403,61.5325909 176.184157,61.5325909 C185.794284,61.5325909 193.585784,69.4387351 193.585784,79.1902648 C193.585784,88.9417945 185.794284,96.8479387 176.184157,96.8479387 M176.280574,45.4773998 C168.693545,45.4773998 163.400577,47.7124416 158.285483,52.8049633 L158.285483,23.2754219 L142.943526,23.2754219 L142.943526,78.0027407 C142.943526,98.4858448 157.53742,112.51516 173.936641,112.51516 C192.166125,112.51516 208.139781,98.2361949 208.139781,78.9979668 C208.139781,60.0026415 193.409573,45.4773998 176.280574,45.4773998" id="Fill-8" fill="#33475B" fill-rule="nonzero"></path>
                <g id="Group-12" transform="translate(277.614795, 44.510850)">
                    <g id="Fill-10-Clipped">
                        <mask id="mask-2" fill="white">
                            <use xlink:href="#path-1"></use>
                        </mask>
                        <g id="path-1"></g>
                        <path d="M33.2777021,51.1436611 C23.6659132,51.1436611 15.874413,43.2375169 15.874413,33.4859872 C15.874413,23.7344575 23.6659132,15.8283133 33.2777021,15.8283133 C42.8861663,15.8283133 50.6776666,23.7344575 50.6776666,33.4859872 C50.6776666,43.2375169 42.8861663,51.1436611 33.2777021,51.1436611 M65.2316638,33.6782851 C65.2316638,14.4400571 49.2580077,0.161091695 31.0285236,0.161091695 C14.6293023,0.161091695 0.0354083541,14.1904071 0.0354083541,34.6735113 L0.0354083541,89.4025168 L15.3773661,89.4025168 L15.3773661,59.8712886 C20.4924603,64.9654972 25.7854274,67.200539 33.3724569,67.200539 C50.501456,67.200539 65.2316638,52.6736105 65.2316638,33.6782851" id="Fill-10" fill="#33475B" fill-rule="nonzero" mask="url(#mask-2)"></path>
                    </g>
                </g>
                <g id="Group-15" transform="translate(296.900800, 0.653425)">
                    <g id="Fill-13-Clipped">
                        <mask id="mask-4" fill="white">
                            <use xlink:href="#path-3"></use>
                        </mask>
                        <g id="path-3"></g>
                        <path d="M90.3337715,94.6873365 C80.7652041,94.6873365 73.0086134,86.8166156 73.0086134,77.1089433 C73.0086134,67.3995842 80.7652041,59.5288633 90.3337715,59.5288633 C99.902339,59.5288633 107.65893,67.3995842 107.65893,77.1089433 C107.65893,86.8166156 99.902339,94.6873365 90.3337715,94.6873365 M95.5203473,43.264506 L95.5203473,27.6259605 C99.543268,25.6979206 102.360975,21.5685754 102.360975,16.7763084 L102.360975,16.415328 C102.360975,9.80129101 97.0281115,4.38995953 90.5099821,4.38995953 L90.1558985,4.38995953 C83.6377691,4.38995953 78.3049053,9.80129101 78.3049053,16.415328 L78.3049053,16.7763084 C78.3049053,21.5685754 81.1226123,25.6996075 85.1455333,27.6276473 L85.1455333,43.264506 C79.1560357,44.204067 73.6835332,46.7106875 69.1702149,50.3997717 L26.8547381,16.9989691 C27.1340153,15.9109676 27.3301743,14.7909165 27.3318366,13.6135133 C27.3384861,6.12401463 21.3639497,0.0430140127 13.9797286,0.0328930685 C6.59883228,0.0244589484 0.60434754,6.08859132 0.59603572,13.5797768 C0.5877239,21.0709623 6.56226027,27.1519629 13.9464813,27.1603971 C16.3519221,27.1637707 18.5794899,26.470486 20.5311053,25.3436876 L62.1550386,58.2013328 C58.6158656,63.6227852 56.5412352,70.1170577 56.5412352,77.1089433 C56.5412352,84.4280728 58.8203363,91.1989844 62.6703715,96.7671905 L50.0131316,109.612355 C49.0123885,109.30704 47.9750733,109.094501 46.8745883,109.094501 C40.8086219,109.094501 35.8896867,114.084126 35.8896867,120.239347 C35.8896867,126.396255 40.8086219,131.38588 46.8745883,131.38588 C52.9422171,131.38588 57.8594899,126.396255 57.8594899,120.239347 C57.8594899,119.126043 57.650032,118.071778 57.3491442,117.05631 L69.8700701,104.351151 C75.5536928,108.752075 82.6320389,111.397015 90.3337715,111.397015 C108.997133,111.397015 124.124645,96.0452298 124.124645,77.1089433 C124.124645,59.9657507 111.713435,45.8031762 95.5203473,43.264506" id="Fill-13" fill="#FF7A59" fill-rule="nonzero" mask="url(#mask-4)"></path>
                    </g>
                </g>
            </g>
        </g>
    </g>
</svg>